<?xml version="1.0" standalone="no"?>
<!DOCTYPE svg PUBLIC "-//W3C//DTD SVG 1.1//EN" 
  "http://www.w3.org/Graphics/SVG/1.1/DTD/svg11.dtd">
<svg width="1024" height="1024" viewBox="0 0 1024 1024"
     xmlns="http://www.w3.org/2000/svg" version="1.1">
<desc>SpaceshipSparrow.blend, (Blender 2.83.5)</desc>
<polygon stroke="black" stroke-width="1" fill="rgb(204, 204, 204)" fill-opacity="0.25" points="634.598,387.838 634.598,387.838 634.598,387.838 634.598,387.838 " />
<polygon stroke="black" stroke-width="1" fill="rgb(204, 204, 204)" fill-opacity="0.25" points="439.171,342.112 439.171,297.788 383.912,297.788 383.912,323.529 " />
<polygon stroke="black" stroke-width="1" fill="rgb(204, 204, 204)" fill-opacity="0.25" points="478.656,751.398 413.159,547.779 286.194,606.786 286.181,742.183 " />
<polygon stroke="black" stroke-width="1" fill="rgb(204, 204, 204)" fill-opacity="0.25" points="634.598,387.838 634.598,387.838 634.598,387.838 634.598,387.838 " />
<polygon stroke="black" stroke-width="1" fill="rgb(204, 204, 204)" fill-opacity="0.25" points="680.137,410.166 621.532,410.166 621.532,507.298 680.137,507.298 " />
<polygon stroke="black" stroke-width="1" fill="rgb(204, 204, 204)" fill-opacity="0.25" points="1012.836,891.750 1012.836,773.726 776.787,773.726 776.787,1012.836 " />
<polygon stroke="black" stroke-width="1" fill="rgb(204, 204, 204)" fill-opacity="0.25" points="680.137,619.086 621.532,619.086 666.882,709.401 680.137,709.401 " />
<polygon stroke="black" stroke-width="1" fill="rgb(204, 204, 204)" fill-opacity="0.25" points="680.137,507.298 621.532,507.298 621.532,619.086 680.137,619.086 " />
<polygon stroke="black" stroke-width="1" fill="rgb(204, 204, 204)" fill-opacity="0.25" points="776.787,1012.836 776.787,773.726 551.660,773.726 551.660,975.303 " />
<polygon stroke="black" stroke-width="1" fill="rgb(204, 204, 204)" fill-opacity="0.25" points="235.922,495.349 56.164,442.989 62.346,458.536 116.613,479.029 " />
<polygon stroke="black" stroke-width="1" fill="rgb(204, 204, 204)" fill-opacity="0.25" points="369.775,867.714 369.775,820.060 330.188,773.726 285.199,773.726 300.461,805.892 " />
<polygon stroke="black" stroke-width="1" fill="rgb(204, 204, 204)" fill-opacity="0.25" points="634.598,387.838 634.598,387.838 634.598,387.837 634.598,387.837 634.598,387.838 " />
<polygon stroke="black" stroke-width="1" fill="rgb(204, 204, 204)" fill-opacity="0.25" points="551.660,975.303 551.660,773.726 487.295,773.726 453.362,824.298 369.775,820.060 369.775,867.714 " />
<polygon stroke="black" stroke-width="1" fill="rgb(204, 204, 204)" fill-opacity="0.25" points="702.466,487.968 751.459,516.949 751.459,372.977 711.999,349.635 " />
<polygon stroke="black" stroke-width="1" fill="rgb(204, 204, 204)" fill-opacity="0.25" points="670.259,738.951 664.165,743.819 680.137,751.398 680.137,738.951 " />
<polygon stroke="black" stroke-width="1" fill="rgb(204, 204, 204)" fill-opacity="0.25" points="666.882,709.401 664.165,743.819 670.259,738.951 " />
<polygon stroke="black" stroke-width="1" fill="rgb(204, 204, 204)" fill-opacity="0.25" points="680.137,709.401 666.882,709.401 670.259,738.951 680.137,738.951 " />
<polygon stroke="black" stroke-width="1" fill="rgb(204, 204, 204)" fill-opacity="0.25" points="634.598,387.837 634.598,387.837 634.598,387.838 634.598,387.838 634.598,387.838 " />
<polygon stroke="black" stroke-width="1" fill="rgb(204, 204, 204)" fill-opacity="0.25" points="361.584,342.112 361.584,238.815 344.811,293.711 345.052,310.496 " />
<polygon stroke="black" stroke-width="1" fill="rgb(204, 204, 204)" fill-opacity="0.25" points="178.936,258.518 70.090,218.320 70.090,218.320 178.936,258.518 " />
<polygon stroke="black" stroke-width="1" fill="rgb(204, 204, 204)" fill-opacity="0.25" points="244.132,436.173 244.132,436.173 262.870,441.560 262.870,441.560 " />
<polygon stroke="black" stroke-width="1" fill="rgb(204, 204, 204)" fill-opacity="0.25" points="46.994,379.497 46.994,379.497 28.255,374.109 28.255,374.109 " />
<polygon stroke="black" stroke-width="1" fill="rgb(204, 204, 204)" fill-opacity="0.25" points="244.132,436.173 46.994,379.497 28.255,374.109 262.870,441.560 " />
<polygon stroke="black" stroke-width="1" fill="rgb(204, 204, 204)" fill-opacity="0.25" points="612.270,387.838 612.270,298.573 500.985,303.008 500.985,384.874 " />
<polygon stroke="black" stroke-width="1" fill="rgb(204, 204, 204)" fill-opacity="0.25" points="46.994,379.497 244.132,436.173 193.493,282.363 53.700,228.754 " />
<polygon stroke="black" stroke-width="1" fill="rgb(204, 204, 204)" fill-opacity="0.25" points="238.270,967.699 75.933,962.189 40.709,1000.955 262.870,1012.836 " />
<polygon stroke="black" stroke-width="1" fill="rgb(204, 204, 204)" fill-opacity="0.25" points="608.610,508.056 611.521,603.060 621.532,619.086 621.532,507.298 " />
<polygon stroke="black" stroke-width="1" fill="rgb(204, 204, 204)" fill-opacity="0.25" points="75.933,962.189 53.019,700.737 11.164,693.700 40.709,1000.955 " />
<polygon stroke="black" stroke-width="1" fill="rgb(204, 204, 204)" fill-opacity="0.25" points="56.164,442.989 235.922,495.349 262.870,441.560 28.255,374.109 " />
<polygon stroke="black" stroke-width="1" fill="rgb(204, 204, 204)" fill-opacity="0.25" points="612.952,430.364 608.610,508.056 621.532,507.298 621.532,410.166 " />
<polygon stroke="black" stroke-width="1" fill="rgb(204, 204, 204)" fill-opacity="0.25" points="53.019,700.737 56.164,442.989 28.255,374.109 11.164,693.700 " />
<polygon stroke="black" stroke-width="1" fill="rgb(204, 204, 204)" fill-opacity="0.25" points="142.053,585.628 95.531,522.391 99.247,722.323 " />
<polygon stroke="black" stroke-width="1" fill="rgb(204, 204, 204)" fill-opacity="0.25" points="780.203,751.398 780.203,638.179 706.305,736.590 " />
<polygon stroke="black" stroke-width="1" fill="rgb(204, 204, 204)" fill-opacity="0.25" points="608.610,508.056 612.952,430.364 518.826,413.219 508.659,466.008 " />
<polygon stroke="black" stroke-width="1" fill="rgb(204, 204, 204)" fill-opacity="0.25" points="611.521,603.060 608.610,508.056 508.659,466.008 500.985,520.363 " />
<polygon stroke="black" stroke-width="1" fill="rgb(204, 204, 204)" fill-opacity="0.25" points="413.159,547.779 478.656,364.441 285.199,490.249 286.194,606.786 " />
<polygon stroke="black" stroke-width="1" fill="rgb(204, 204, 204)" fill-opacity="0.25" points="75.933,962.189 238.270,967.699 117.361,735.103 83.836,750.632 " />
<polygon stroke="black" stroke-width="1" fill="rgb(204, 204, 204)" fill-opacity="0.25" points="99.247,722.323 82.129,589.206 66.833,593.900 83.836,750.632 " />
<polygon stroke="black" stroke-width="1" fill="rgb(204, 204, 204)" fill-opacity="0.25" points="101.354,484.808 142.053,585.628 159.433,588.723 116.613,479.029 " />
<polygon stroke="black" stroke-width="1" fill="rgb(204, 204, 204)" fill-opacity="0.25" points="77.444,474.309 101.354,484.808 116.613,479.029 62.346,458.536 " />
<polygon stroke="black" stroke-width="1" fill="rgb(204, 204, 204)" fill-opacity="0.25" points="142.053,585.628 99.247,722.323 117.361,735.103 159.433,588.723 " />
<polygon stroke="black" stroke-width="1" fill="rgb(204, 204, 204)" fill-opacity="0.25" points="99.247,722.323 83.836,750.632 117.361,735.103 " />
<polygon stroke="black" stroke-width="1" fill="rgb(204, 204, 204)" fill-opacity="0.25" points="82.129,589.206 77.444,474.309 62.346,458.536 66.833,593.900 " />
<polygon stroke="black" stroke-width="1" fill="rgb(204, 204, 204)" fill-opacity="0.25" points="142.053,585.628 101.354,484.808 82.096,485.790 " />
<polygon stroke="black" stroke-width="1" fill="rgb(204, 204, 204)" fill-opacity="0.25" points="101.354,484.808 77.444,474.309 82.096,485.790 " />
<polygon stroke="black" stroke-width="1" fill="rgb(204, 204, 204)" fill-opacity="0.25" points="780.203,638.179 779.230,539.278 702.466,691.612 706.305,736.590 " />
<polygon stroke="black" stroke-width="1" fill="rgb(204, 204, 204)" fill-opacity="0.25" points="142.053,585.628 82.096,485.790 95.531,522.391 " />
<polygon stroke="black" stroke-width="1" fill="rgb(204, 204, 204)" fill-opacity="0.25" points="634.598,387.837 634.598,387.837 634.598,387.837 " />
<polygon stroke="black" stroke-width="1" fill="rgb(204, 204, 204)" fill-opacity="0.25" points="634.598,387.837 634.598,387.838 634.598,387.838 634.598,387.837 " />
<polygon stroke="black" stroke-width="1" fill="rgb(204, 204, 204)" fill-opacity="0.25" points="369.775,820.060 453.362,824.298 451.254,821.452 372.370,817.453 " />
<polygon stroke="black" stroke-width="1" fill="rgb(204, 204, 204)" fill-opacity="0.25" points="634.598,387.837 634.598,387.838 634.598,387.837 " />
<polygon stroke="black" stroke-width="1" fill="rgb(204, 204, 204)" fill-opacity="0.25" points="634.598,387.838 634.598,387.837 634.598,387.838 " />
<polygon stroke="black" stroke-width="1" fill="rgb(204, 204, 204)" fill-opacity="0.25" points="335.010,773.726 372.370,817.453 372.370,773.726 " />
<polygon stroke="black" stroke-width="1" fill="rgb(204, 204, 204)" fill-opacity="0.25" points="372.370,817.453 418.810,773.726 372.370,773.726 " />
<polygon stroke="black" stroke-width="1" fill="rgb(204, 204, 204)" fill-opacity="0.25" points="418.810,773.726 451.254,821.452 483.278,773.726 " />
<polygon stroke="black" stroke-width="1" fill="rgb(204, 204, 204)" fill-opacity="0.25" points="372.370,817.453 451.254,821.452 418.810,773.726 " />
<polygon stroke="black" stroke-width="1" fill="rgb(204, 204, 204)" fill-opacity="0.25" points="453.362,824.298 487.295,773.726 483.278,773.726 451.254,821.452 " />
<polygon stroke="black" stroke-width="1" fill="rgb(204, 204, 204)" fill-opacity="0.25" points="330.188,773.726 369.775,820.060 372.370,817.453 335.010,773.726 " />
<polygon stroke="black" stroke-width="1" fill="rgb(204, 204, 204)" fill-opacity="0.25" points="344.811,293.711 330.480,297.294 345.052,310.496 " />
<polygon stroke="black" stroke-width="1" fill="rgb(204, 204, 204)" fill-opacity="0.25" points="285.199,273.664 361.584,342.112 345.052,310.496 330.480,297.294 " />
<polygon stroke="black" stroke-width="1" fill="rgb(204, 204, 204)" fill-opacity="0.25" points="361.584,238.815 285.199,273.664 330.480,297.294 344.811,293.711 " />
<polygon stroke="black" stroke-width="1" fill="rgb(204, 204, 204)" fill-opacity="0.25" points="178.936,258.518 178.936,258.518 193.493,282.363 193.493,282.363 " />
<polygon stroke="black" stroke-width="1" fill="rgb(204, 204, 204)" fill-opacity="0.25" points="70.090,218.320 70.090,218.320 53.700,228.754 53.700,228.754 " />
<polygon stroke="black" stroke-width="1" fill="rgb(204, 204, 204)" fill-opacity="0.25" points="178.936,258.518 70.090,218.320 53.700,228.754 193.493,282.363 " />
<polygon stroke="black" stroke-width="1" fill="rgb(204, 204, 204)" fill-opacity="0.25" points="70.090,218.320 178.936,258.518 193.493,282.363 244.132,436.173 46.994,379.497 53.700,228.754 " />

</svg>
