<?xml version="1.0" standalone="no"?>
<!DOCTYPE svg PUBLIC "-//W3C//DTD SVG 1.1//EN" 
  "http://www.w3.org/Graphics/SVG/1.1/DTD/svg11.dtd">
<svg width="1024" height="1024" viewBox="0 0 1024 1024"
     xmlns="http://www.w3.org/2000/svg" version="1.1">
<desc>SpaceshipFrog.blend, (Blender 2.83.5)</desc>
<polygon stroke="black" stroke-width="1" fill="rgb(204, 204, 204)" fill-opacity="0.25" points="316.077,608.236 343.459,607.604 345.487,506.846 318.705,503.478 " />
<polygon stroke="black" stroke-width="1" fill="rgb(204, 204, 204)" fill-opacity="0.25" points="230.684,869.829 185.925,874.235 186.305,875.157 230.673,870.540 " />
<polygon stroke="black" stroke-width="1" fill="rgb(204, 204, 204)" fill-opacity="0.25" points="230.673,870.540 186.305,875.157 205.062,960.425 218.442,963.882 " />
<polygon stroke="black" stroke-width="1" fill="rgb(204, 204, 204)" fill-opacity="0.25" points="286.264,879.245 267.485,875.133 236.694,967.068 240.703,967.377 " />
<polygon stroke="black" stroke-width="1" fill="rgb(204, 204, 204)" fill-opacity="0.25" points="267.485,875.133 230.673,870.540 218.442,963.882 236.694,967.068 " />
<polygon stroke="black" stroke-width="1" fill="rgb(204, 204, 204)" fill-opacity="0.25" points="295.195,877.972 267.546,874.773 267.485,875.133 286.264,879.245 " />
<polygon stroke="black" stroke-width="1" fill="rgb(204, 204, 204)" fill-opacity="0.25" points="863.419,391.357 863.469,405.775 863.469,405.775 " />
<polygon stroke="black" stroke-width="1" fill="rgb(204, 204, 204)" fill-opacity="0.25" points="183.574,599.675 276.958,607.859 282.460,500.061 199.934,497.424 " />
<polygon stroke="black" stroke-width="1" fill="rgb(204, 204, 204)" fill-opacity="0.25" points="979.469,383.810 947.282,390.269 948.395,407.993 979.469,401.758 " />
<polygon stroke="black" stroke-width="1" fill="rgb(204, 204, 204)" fill-opacity="0.25" points="282.460,500.061 318.705,503.478 312.798,449.541 268.256,445.719 " />
<polygon stroke="black" stroke-width="1" fill="rgb(204, 204, 204)" fill-opacity="0.25" points="318.705,503.478 345.487,506.846 356.043,457.817 312.798,449.541 " />
<polygon stroke="black" stroke-width="1" fill="rgb(204, 204, 204)" fill-opacity="0.25" points="199.934,497.424 282.460,500.061 268.256,445.719 192.807,446.517 " />
<polygon stroke="black" stroke-width="1" fill="rgb(204, 204, 204)" fill-opacity="0.25" points="302.836,698.879 255.556,695.684 238.243,780.963 282.906,785.499 " />
<polygon stroke="black" stroke-width="1" fill="rgb(204, 204, 204)" fill-opacity="0.25" points="319.844,700.453 302.836,698.879 282.906,785.499 307.608,794.763 " />
<polygon stroke="black" stroke-width="1" fill="rgb(204, 204, 204)" fill-opacity="0.25" points="255.556,695.684 177.281,687.312 177.729,781.370 238.243,780.963 " />
<polygon stroke="black" stroke-width="1" fill="rgb(204, 204, 204)" fill-opacity="0.25" points="255.556,695.684 302.836,698.879 316.077,608.236 276.958,607.859 " />
<polygon stroke="black" stroke-width="1" fill="rgb(204, 204, 204)" fill-opacity="0.25" points="177.281,687.312 255.556,695.684 276.958,607.859 183.574,599.675 " />
<polygon stroke="black" stroke-width="1" fill="rgb(204, 204, 204)" fill-opacity="0.25" points="302.836,698.879 319.844,700.453 343.459,607.604 316.077,608.236 " />
<polygon stroke="black" stroke-width="1" fill="rgb(204, 204, 204)" fill-opacity="0.25" points="624.700,906.030 624.700,821.918 646.242,812.085 667.070,812.085 667.070,969.971 651.535,969.971 " />
<polygon stroke="black" stroke-width="1" fill="rgb(204, 204, 204)" fill-opacity="0.25" points="984.156,832.739 973.492,832.847 966.390,819.653 998.030,819.330 " />
<polygon stroke="black" stroke-width="1" fill="rgb(204, 204, 204)" fill-opacity="0.25" points="369.544,40.121 402.994,39.596 402.929,26.115 370.777,26.619 " />
<polygon stroke="black" stroke-width="1" fill="rgb(204, 204, 204)" fill-opacity="0.25" points="961.372,760.392 874.621,715.914 874.513,730.218 961.423,774.778 " />
<polygon stroke="black" stroke-width="1" fill="rgb(204, 204, 204)" fill-opacity="0.25" points="581.095,187.062 661.549,196.255 661.549,254.474 581.095,263.667 " />
<polygon stroke="black" stroke-width="1" fill="rgb(204, 204, 204)" fill-opacity="0.25" points="552.252,305.392 549.917,393.819 531.918,392.617 534.451,308.026 " />
<polygon stroke="black" stroke-width="1" fill="rgb(204, 204, 204)" fill-opacity="0.25" points="908.955,386.656 922.872,383.912 923.477,401.908 892.616,407.993 " />
<polygon stroke="black" stroke-width="1" fill="rgb(204, 204, 204)" fill-opacity="0.25" points="550.053,539.047 552.406,449.953 534.470,452.607 531.918,537.836 " />
<polygon stroke="black" stroke-width="1" fill="rgb(204, 204, 204)" fill-opacity="0.25" points="966.242,527.308 944.511,516.732 944.511,449.751 966.242,439.175 " />
<polygon stroke="black" stroke-width="1" fill="rgb(204, 204, 204)" fill-opacity="0.25" points="551.202,563.996 531.918,582.133 531.918,644.643 551.202,726.783 " />
<polygon stroke="black" stroke-width="1" fill="rgb(204, 204, 204)" fill-opacity="0.25" points="671.266,563.996 642.451,580.831 642.451,645.945 671.266,726.783 " />
<polygon stroke="black" stroke-width="1" fill="rgb(204, 204, 204)" fill-opacity="0.25" points="592.991,906.030 624.700,906.030 651.535,969.971 566.156,969.971 " />
<polygon stroke="black" stroke-width="1" fill="rgb(204, 204, 204)" fill-opacity="0.25" points="788.615,851.157 758.223,851.157 744.672,846.320 802.166,846.320 " />
<polygon stroke="black" stroke-width="1" fill="rgb(204, 204, 204)" fill-opacity="0.25" points="784.044,588.186 856.204,588.186 856.204,579.359 784.044,579.359 " />
<polygon stroke="black" stroke-width="1" fill="rgb(204, 204, 204)" fill-opacity="0.25" points="531.918,187.062 581.095,187.062 581.095,263.667 531.918,263.667 " />
<polygon stroke="black" stroke-width="1" fill="rgb(204, 204, 204)" fill-opacity="0.25" points="814.203,824.521 831.681,846.320 802.166,846.320 " />
<polygon stroke="black" stroke-width="1" fill="rgb(204, 204, 204)" fill-opacity="0.25" points="774.595,434.972 774.595,461.829 857.997,461.829 857.997,434.972 " />
<polygon stroke="black" stroke-width="1" fill="rgb(204, 204, 204)" fill-opacity="0.25" points="773.377,588.186 701.217,588.186 701.217,579.359 773.377,579.359 " />
<polygon stroke="black" stroke-width="1" fill="rgb(204, 204, 204)" fill-opacity="0.25" points="834.381,44.434 897.211,44.434 897.211,53.262 834.381,53.262 " />
<polygon stroke="black" stroke-width="1" fill="rgb(204, 204, 204)" fill-opacity="0.25" points="976.909,527.308 976.909,455.148 987.924,455.148 987.924,527.308 " />
<polygon stroke="black" stroke-width="1" fill="rgb(204, 204, 204)" fill-opacity="0.25" points="671.266,726.783 690.550,644.643 690.550,582.133 671.266,563.996 " />
<polygon stroke="black" stroke-width="1" fill="rgb(204, 204, 204)" fill-opacity="0.25" points="592.991,821.918 592.991,906.030 566.156,969.971 550.621,969.971 550.621,812.085 571.449,812.085 " />
<polygon stroke="black" stroke-width="1" fill="rgb(204, 204, 204)" fill-opacity="0.25" points="792.268,789.396 792.268,813.854 877.429,813.854 877.429,789.396 " />
<polygon stroke="black" stroke-width="1" fill="rgb(204, 204, 204)" fill-opacity="0.25" points="624.700,821.918 592.991,821.918 571.449,812.085 646.242,812.085 " />
<polygon stroke="black" stroke-width="1" fill="rgb(204, 204, 204)" fill-opacity="0.25" points="788.615,948.545 808.469,987.033 738.369,987.033 758.223,948.545 " />
<polygon stroke="black" stroke-width="1" fill="rgb(204, 204, 204)" fill-opacity="0.25" points="861.064,876.985 870.256,957.439 928.476,957.439 937.668,876.985 " />
<polygon stroke="black" stroke-width="1" fill="rgb(204, 204, 204)" fill-opacity="0.25" points="100.657,926.926 187.086,1008.117 205.062,960.425 186.305,875.157 " />
<polygon stroke="black" stroke-width="1" fill="rgb(204, 204, 204)" fill-opacity="0.25" points="295.195,877.972 286.264,879.245 342.733,976.872 351.089,971.860 " />
<polygon stroke="black" stroke-width="1" fill="rgb(204, 204, 204)" fill-opacity="0.25" points="356.043,457.817 345.487,506.846 521.251,464.455 496.243,399.074 " />
<polygon stroke="black" stroke-width="1" fill="rgb(204, 204, 204)" fill-opacity="0.25" points="345.487,506.846 343.459,607.604 521.251,640.812 521.251,464.455 " />
<polygon stroke="black" stroke-width="1" fill="rgb(204, 204, 204)" fill-opacity="0.25" points="319.844,700.453 307.608,794.763 438.096,873.537 486.989,761.522 " />
<polygon stroke="black" stroke-width="1" fill="rgb(204, 204, 204)" fill-opacity="0.25" points="343.459,607.604 319.844,700.453 486.989,761.522 521.251,640.812 " />
<polygon stroke="black" stroke-width="1" fill="rgb(204, 204, 204)" fill-opacity="0.25" points="177.729,781.370 177.281,687.312 18.309,717.273 49.536,827.394 " />
<polygon stroke="black" stroke-width="1" fill="rgb(204, 204, 204)" fill-opacity="0.25" points="199.934,497.424 192.807,446.517 55.491,375.402 27.064,436.465 " />
<polygon stroke="black" stroke-width="1" fill="rgb(204, 204, 204)" fill-opacity="0.25" points="177.281,687.312 183.574,599.675 5.334,602.735 18.309,717.273 " />
<polygon stroke="black" stroke-width="1" fill="rgb(204, 204, 204)" fill-opacity="0.25" points="185.925,874.235 177.729,781.370 49.536,827.394 99.783,925.491 " />
<polygon stroke="black" stroke-width="1" fill="rgb(204, 204, 204)" fill-opacity="0.25" points="183.574,599.675 199.934,497.424 27.064,436.465 5.334,602.735 " />
<polygon stroke="black" stroke-width="1" fill="rgb(204, 204, 204)" fill-opacity="0.25" points="236.694,967.068 218.442,963.882 206.298,1014.051 232.417,1018.318 " />
<polygon stroke="black" stroke-width="1" fill="rgb(204, 204, 204)" fill-opacity="0.25" points="218.442,963.882 205.062,960.425 187.086,1008.117 206.298,1014.051 " />
<polygon stroke="black" stroke-width="1" fill="rgb(204, 204, 204)" fill-opacity="0.25" points="240.703,967.377 236.694,967.068 232.417,1018.318 237.262,1018.666 " />
<polygon stroke="black" stroke-width="1" fill="rgb(204, 204, 204)" fill-opacity="0.25" points="240.703,967.377 237.262,1018.666 342.733,976.872 286.264,879.245 " />
<polygon stroke="black" stroke-width="1" fill="rgb(204, 204, 204)" fill-opacity="0.25" points="192.807,446.517 268.256,445.719 240.380,274.665 207.804,297.824 " />
<polygon stroke="black" stroke-width="1" fill="rgb(204, 204, 204)" fill-opacity="0.25" points="356.988,321.647 356.043,457.817 496.243,399.074 397.425,278.150 " />
<polygon stroke="black" stroke-width="1" fill="rgb(204, 204, 204)" fill-opacity="0.25" points="312.798,449.541 291.938,275.584 240.380,274.665 268.256,445.719 " />
<polygon stroke="black" stroke-width="1" fill="rgb(204, 204, 204)" fill-opacity="0.25" points="356.043,457.817 356.988,321.647 291.938,275.584 312.798,449.541 " />
<polygon stroke="black" stroke-width="1" fill="rgb(204, 204, 204)" fill-opacity="0.25" points="291.938,275.584 356.988,321.647 397.425,278.150 305.470,216.379 " />
<polygon stroke="black" stroke-width="1" fill="rgb(204, 204, 204)" fill-opacity="0.25" points="207.804,297.824 240.380,274.665 225.547,222.779 172.495,248.160 " />
<polygon stroke="black" stroke-width="1" fill="rgb(204, 204, 204)" fill-opacity="0.25" points="55.491,375.402 192.807,446.517 207.804,297.824 172.495,248.160 " />
<polygon stroke="black" stroke-width="1" fill="rgb(204, 204, 204)" fill-opacity="0.25" points="305.470,216.379 225.547,222.779 240.380,274.665 291.938,275.584 " />
<polygon stroke="black" stroke-width="1" fill="rgb(204, 204, 204)" fill-opacity="0.25" points="763.928,553.329 763.928,418.660 739.585,422.579 735.724,551.511 " />
<polygon stroke="black" stroke-width="1" fill="rgb(204, 204, 204)" fill-opacity="0.25" points="878.462,179.028 923.477,170.152 903.141,202.333 884.246,206.059 " />
<polygon stroke="black" stroke-width="1" fill="rgb(204, 204, 204)" fill-opacity="0.25" points="762.189,274.334 762.189,407.993 734.196,406.189 738.029,278.224 " />
<polygon stroke="black" stroke-width="1" fill="rgb(204, 204, 204)" fill-opacity="0.25" points="979.469,172.143 934.144,181.239 935.420,205.333 979.123,196.563 " />
<polygon stroke="black" stroke-width="1" fill="rgb(204, 204, 204)" fill-opacity="0.25" points="735.724,551.511 739.585,422.579 552.406,449.953 550.053,539.047 " />
<polygon stroke="black" stroke-width="1" fill="rgb(204, 204, 204)" fill-opacity="0.25" points="884.246,206.059 903.141,202.333 922.872,383.912 908.955,386.656 " />
<polygon stroke="black" stroke-width="1" fill="rgb(204, 204, 204)" fill-opacity="0.25" points="738.029,278.224 734.196,406.189 549.917,393.819 552.252,305.392 " />
<polygon stroke="black" stroke-width="1" fill="rgb(204, 204, 204)" fill-opacity="0.25" points="979.123,196.563 935.420,205.333 947.282,390.269 979.469,383.810 " />
<polygon stroke="black" stroke-width="1" fill="rgb(204, 204, 204)" fill-opacity="0.25" points="403.676,179.174 402.994,39.596 369.544,40.121 356.778,179.910 " />
<polygon stroke="black" stroke-width="1" fill="rgb(204, 204, 204)" fill-opacity="0.25" points="970.124,970.233 973.492,832.847 984.156,832.739 985.074,970.081 " />
<polygon stroke="black" stroke-width="1" fill="rgb(204, 204, 204)" fill-opacity="0.25" points="862.897,242.085 863.419,391.357 776.472,346.778 777.594,198.349 " />
<polygon stroke="black" stroke-width="1" fill="rgb(204, 204, 204)" fill-opacity="0.25" points="965.739,561.778 960.852,611.456 965.739,561.778 " />
<polygon stroke="black" stroke-width="1" fill="rgb(204, 204, 204)" fill-opacity="0.25" points="403.676,204.920 403.676,179.174 356.778,179.910 353.178,205.712 " />
<polygon stroke="black" stroke-width="1" fill="rgb(204, 204, 204)" fill-opacity="0.25" points="948.335,1018.666 970.124,970.233 985.074,970.081 998.030,1018.160 " />
<polygon stroke="black" stroke-width="1" fill="rgb(204, 204, 204)" fill-opacity="0.25" points="867.795,192.295 862.897,242.085 777.594,198.349 772.856,168.437 " />
<polygon stroke="black" stroke-width="1" fill="rgb(204, 204, 204)" fill-opacity="0.25" points="420.537,129.216 420.537,201.376 414.343,205.712 414.343,124.880 " />
<polygon stroke="black" stroke-width="1" fill="rgb(204, 204, 204)" fill-opacity="0.25" points="780.790,548.993 780.790,476.833 774.595,472.496 774.595,553.329 " />
<polygon stroke="black" stroke-width="1" fill="rgb(204, 204, 204)" fill-opacity="0.25" points="627.753,107.370 699.913,107.370 704.249,101.175 623.417,101.175 " />
<polygon stroke="black" stroke-width="1" fill="rgb(204, 204, 204)" fill-opacity="0.25" points="608.414,107.370 536.254,107.370 531.918,101.175 612.750,101.175 " />
<polygon stroke="black" stroke-width="1" fill="rgb(204, 204, 204)" fill-opacity="0.25" points="483.368,201.376 483.368,129.216 489.563,124.880 489.563,205.712 " />
<polygon stroke="black" stroke-width="1" fill="rgb(204, 204, 204)" fill-opacity="0.25" points="843.620,476.833 843.620,548.993 849.815,553.329 849.815,472.496 " />
<polygon stroke="black" stroke-width="1" fill="rgb(204, 204, 204)" fill-opacity="0.25" points="699.913,170.201 627.753,170.201 623.417,176.395 704.249,176.395 " />
<polygon stroke="black" stroke-width="1" fill="rgb(204, 204, 204)" fill-opacity="0.25" points="536.254,170.201 608.414,170.201 612.750,176.395 531.918,176.395 " />
<polygon stroke="black" stroke-width="1" fill="rgb(204, 204, 204)" fill-opacity="0.25" points="536.254,107.370 536.254,170.201 531.918,176.395 531.918,101.175 " />
<polygon stroke="black" stroke-width="1" fill="rgb(204, 204, 204)" fill-opacity="0.25" points="627.753,170.201 627.753,107.370 623.417,101.175 623.417,176.395 " />
<polygon stroke="black" stroke-width="1" fill="rgb(204, 204, 204)" fill-opacity="0.25" points="843.620,548.993 780.790,548.993 774.595,553.329 849.815,553.329 " />
<polygon stroke="black" stroke-width="1" fill="rgb(204, 204, 204)" fill-opacity="0.25" points="780.790,476.833 843.620,476.833 849.815,472.496 774.595,472.496 " />
<polygon stroke="black" stroke-width="1" fill="rgb(204, 204, 204)" fill-opacity="0.25" points="483.368,129.216 420.537,129.216 414.343,124.880 489.563,124.880 " />
<polygon stroke="black" stroke-width="1" fill="rgb(204, 204, 204)" fill-opacity="0.25" points="699.913,107.370 699.913,170.201 704.249,176.395 704.249,101.175 " />
<polygon stroke="black" stroke-width="1" fill="rgb(204, 204, 204)" fill-opacity="0.25" points="608.414,170.201 608.414,107.370 612.750,101.175 612.750,176.395 " />
<polygon stroke="black" stroke-width="1" fill="rgb(204, 204, 204)" fill-opacity="0.25" points="420.537,201.376 483.368,201.376 489.563,205.712 414.343,205.712 " />
<polygon stroke="black" stroke-width="1" fill="rgb(204, 204, 204)" fill-opacity="0.25" points="772.856,85.611 772.856,157.770 835.687,157.770 835.687,85.611 " />
<polygon stroke="black" stroke-width="1" fill="rgb(204, 204, 204)" fill-opacity="0.25" points="5.334,45.469 5.334,117.628 68.164,117.628 68.164,45.469 " />
<polygon stroke="black" stroke-width="1" fill="rgb(204, 204, 204)" fill-opacity="0.25" points="846.354,157.770 846.354,85.611 909.184,85.611 909.184,157.770 " />
<polygon stroke="black" stroke-width="1" fill="rgb(204, 204, 204)" fill-opacity="0.25" points="871.014,527.308 871.014,455.148 933.844,455.148 933.844,527.308 " />
<polygon stroke="black" stroke-width="1" fill="rgb(204, 204, 204)" fill-opacity="0.25" points="996.974,26.507 934.144,26.507 934.144,35.334 996.974,35.334 " />
<polygon stroke="black" stroke-width="1" fill="rgb(204, 204, 204)" fill-opacity="0.25" points="68.164,25.975 5.334,25.975 5.334,34.802 68.164,34.802 " />
<polygon stroke="black" stroke-width="1" fill="rgb(204, 204, 204)" fill-opacity="0.25" points="990.136,335.834 990.136,407.993 1001.151,407.993 1001.151,335.834 " />
<polygon stroke="black" stroke-width="1" fill="rgb(204, 204, 204)" fill-opacity="0.25" points="888.096,800.412 950.926,800.412 950.926,789.396 888.096,789.396 " />
<polygon stroke="black" stroke-width="1" fill="rgb(204, 204, 204)" fill-opacity="0.25" points="478.548,42.053 478.548,114.213 489.563,114.213 489.563,42.053 " />
<polygon stroke="black" stroke-width="1" fill="rgb(204, 204, 204)" fill-opacity="0.25" points="90.073,60.610 152.904,60.610 152.904,49.595 90.073,49.595 " />
<polygon stroke="black" stroke-width="1" fill="rgb(204, 204, 204)" fill-opacity="0.25" points="878.462,427.488 950.622,427.488 950.622,418.660 878.462,418.660 " />
<polygon stroke="black" stroke-width="1" fill="rgb(204, 204, 204)" fill-opacity="0.25" points="909.184,74.944 846.354,74.944 846.354,63.929 909.184,63.929 " />
<polygon stroke="black" stroke-width="1" fill="rgb(204, 204, 204)" fill-opacity="0.25" points="162.233,80.104 90.073,80.104 90.073,71.277 162.233,71.277 " />
<polygon stroke="black" stroke-width="1" fill="rgb(204, 204, 204)" fill-opacity="0.25" points="90.073,30.100 152.904,30.100 152.904,38.928 90.073,38.928 " />
<polygon stroke="black" stroke-width="1" fill="rgb(204, 204, 204)" fill-opacity="0.25" points="990.136,325.167 990.136,253.007 1001.151,253.007 1001.151,325.167 " />
<polygon stroke="black" stroke-width="1" fill="rgb(204, 204, 204)" fill-opacity="0.25" points="835.687,74.944 772.856,74.944 772.856,63.929 835.687,63.929 " />
<polygon stroke="black" stroke-width="1" fill="rgb(204, 204, 204)" fill-opacity="0.25" points="875.741,567.819 874.621,715.914 961.372,760.392 960.852,611.456 " />
<polygon stroke="black" stroke-width="1" fill="rgb(204, 204, 204)" fill-opacity="0.25" points="867.795,192.295 862.897,242.085 867.795,192.295 " />
<polygon stroke="black" stroke-width="1" fill="rgb(204, 204, 204)" fill-opacity="0.25" points="871.014,537.975 875.741,567.819 960.852,611.456 965.739,561.778 " />
<polygon stroke="black" stroke-width="1" fill="rgb(204, 204, 204)" fill-opacity="0.25" points="186.305,875.157 185.925,874.235 99.783,925.491 100.657,926.926 " />
<polygon stroke="black" stroke-width="1" fill="rgb(204, 204, 204)" fill-opacity="0.25" points="307.608,794.763 295.195,877.972 351.089,971.860 438.096,873.537 " />
<polygon stroke="black" stroke-width="1" fill="rgb(204, 204, 204)" fill-opacity="0.25" points="841.002,744.295 720.562,744.295 738.628,776.991 822.936,776.991 " />
<polygon stroke="black" stroke-width="1" fill="rgb(204, 204, 204)" fill-opacity="0.25" points="696.441,789.396 781.601,789.396 781.601,813.854 696.441,813.854 " />
<polygon stroke="black" stroke-width="1" fill="rgb(204, 204, 204)" fill-opacity="0.25" points="841.002,744.295 860.347,667.397 860.347,611.547 841.002,598.853 " />
<polygon stroke="black" stroke-width="1" fill="rgb(204, 204, 204)" fill-opacity="0.25" points="831.681,846.320 850.397,858.601 850.397,912.635 831.681,987.033 " />
<polygon stroke="black" stroke-width="1" fill="rgb(204, 204, 204)" fill-opacity="0.25" points="961.372,760.392 961.423,774.778 961.423,774.778 " />
<polygon stroke="black" stroke-width="1" fill="rgb(204, 204, 204)" fill-opacity="0.25" points="776.472,346.778 863.419,391.357 863.469,405.775 776.363,361.115 " />
<polygon stroke="black" stroke-width="1" fill="rgb(204, 204, 204)" fill-opacity="0.25" points="307.608,794.763 282.906,785.499 267.546,874.773 295.195,877.972 " />
<polygon stroke="black" stroke-width="1" fill="rgb(204, 204, 204)" fill-opacity="0.25" points="238.243,780.963 177.729,781.370 185.925,874.235 230.684,869.829 " />
<polygon stroke="black" stroke-width="1" fill="rgb(204, 204, 204)" fill-opacity="0.25" points="732.635,1018.666 715.156,987.033 738.369,987.033 " />
<polygon stroke="black" stroke-width="1" fill="rgb(204, 204, 204)" fill-opacity="0.25" points="671.266,726.783 551.202,726.783 569.211,776.991 653.257,776.991 " />
<polygon stroke="black" stroke-width="1" fill="rgb(204, 204, 204)" fill-opacity="0.25" points="667.070,812.085 646.242,812.085 649.603,787.658 " />
<polygon stroke="black" stroke-width="1" fill="rgb(204, 204, 204)" fill-opacity="0.25" points="671.266,726.783 642.451,645.945 580.017,645.945 551.202,726.783 " />
<polygon stroke="black" stroke-width="1" fill="rgb(204, 204, 204)" fill-opacity="0.25" points="162.233,117.628 78.831,117.628 78.831,90.771 162.233,90.771 " />
<polygon stroke="black" stroke-width="1" fill="rgb(204, 204, 204)" fill-opacity="0.25" points="646.242,812.085 571.449,812.085 568.089,787.658 649.603,787.658 " />
<polygon stroke="black" stroke-width="1" fill="rgb(204, 204, 204)" fill-opacity="0.25" points="551.202,726.783 580.017,645.945 580.017,580.831 551.202,563.996 " />
<polygon stroke="black" stroke-width="1" fill="rgb(204, 204, 204)" fill-opacity="0.25" points="571.449,812.085 550.621,812.085 568.089,787.658 " />
<polygon stroke="black" stroke-width="1" fill="rgb(204, 204, 204)" fill-opacity="0.25" points="861.064,876.985 937.668,876.985 937.668,827.808 861.064,827.808 " />
<polygon stroke="black" stroke-width="1" fill="rgb(204, 204, 204)" fill-opacity="0.25" points="958.366,161.476 958.366,46.001 934.144,63.322 934.144,144.155 " />
<polygon stroke="black" stroke-width="1" fill="rgb(204, 204, 204)" fill-opacity="0.25" points="566.156,969.971 651.535,969.971 649.603,1018.666 568.089,1018.666 " />
<polygon stroke="black" stroke-width="1" fill="rgb(204, 204, 204)" fill-opacity="0.25" points="550.621,969.971 566.156,969.971 568.089,1018.666 " />
<polygon stroke="black" stroke-width="1" fill="rgb(204, 204, 204)" fill-opacity="0.25" points="754.812,263.667 733.443,231.737 733.443,162.554 754.812,130.623 " />
<polygon stroke="black" stroke-width="1" fill="rgb(204, 204, 204)" fill-opacity="0.25" points="651.535,969.971 667.070,969.971 649.603,1018.666 " />
<polygon stroke="black" stroke-width="1" fill="rgb(204, 204, 204)" fill-opacity="0.25" points="990.636,161.476 990.636,46.001 969.033,63.322 969.033,144.155 " />
<polygon stroke="black" stroke-width="1" fill="rgb(204, 204, 204)" fill-opacity="0.25" points="996.690,776.991 976.406,767.119 976.406,704.598 996.690,694.726 " />
<polygon stroke="black" stroke-width="1" fill="rgb(204, 204, 204)" fill-opacity="0.25" points="802.166,846.320 831.681,846.320 831.681,987.033 808.469,987.033 788.615,948.545 788.615,851.157 " />
<polygon stroke="black" stroke-width="1" fill="rgb(204, 204, 204)" fill-opacity="0.25" points="667.070,812.085 685.774,829.676 685.774,890.304 667.070,969.971 " />
<polygon stroke="black" stroke-width="1" fill="rgb(204, 204, 204)" fill-opacity="0.25" points="802.166,846.320 744.672,846.320 732.635,824.521 814.203,824.521 " />
<polygon stroke="black" stroke-width="1" fill="rgb(204, 204, 204)" fill-opacity="0.25" points="744.672,846.320 715.156,846.320 732.635,824.521 " />
<polygon stroke="black" stroke-width="1" fill="rgb(204, 204, 204)" fill-opacity="0.25" points="863.469,405.775 863.469,405.775 867.795,407.993 " />
<polygon stroke="black" stroke-width="1" fill="rgb(204, 204, 204)" fill-opacity="0.25" points="961.423,774.778 961.423,774.778 965.739,776.991 " />
<polygon stroke="black" stroke-width="1" fill="rgb(204, 204, 204)" fill-opacity="0.25" points="136.325,205.712 136.325,128.295 168.589,128.295 168.589,205.712 " />
<polygon stroke="black" stroke-width="1" fill="rgb(204, 204, 204)" fill-opacity="0.25" points="808.469,987.033 831.681,987.033 814.203,1018.666 " />
<polygon stroke="black" stroke-width="1" fill="rgb(204, 204, 204)" fill-opacity="0.25" points="738.369,987.033 715.156,987.033 715.156,846.320 744.672,846.320 758.223,851.157 758.223,948.545 " />
<polygon stroke="black" stroke-width="1" fill="rgb(204, 204, 204)" fill-opacity="0.25" points="310.247,128.295 310.247,205.712 342.511,205.712 342.511,128.295 " />
<polygon stroke="black" stroke-width="1" fill="rgb(204, 204, 204)" fill-opacity="0.25" points="754.812,119.956 733.081,109.380 733.081,42.399 754.812,31.824 " />
<polygon stroke="black" stroke-width="1" fill="rgb(204, 204, 204)" fill-opacity="0.25" points="550.621,969.971 531.918,890.304 531.918,829.676 550.621,812.085 " />
<polygon stroke="black" stroke-width="1" fill="rgb(204, 204, 204)" fill-opacity="0.25" points="738.369,987.033 808.469,987.033 814.203,1018.666 732.635,1018.666 " />
<polygon stroke="black" stroke-width="1" fill="rgb(204, 204, 204)" fill-opacity="0.25" points="136.325,205.712 60.444,196.422 60.444,137.586 136.325,128.295 " />
<polygon stroke="black" stroke-width="1" fill="rgb(204, 204, 204)" fill-opacity="0.25" points="996.690,684.059 976.406,674.187 976.406,611.665 996.690,601.794 " />
<polygon stroke="black" stroke-width="1" fill="rgb(204, 204, 204)" fill-opacity="0.25" points="715.156,987.033 696.441,912.635 696.441,858.601 715.156,846.320 " />
<polygon stroke="black" stroke-width="1" fill="rgb(204, 204, 204)" fill-opacity="0.25" points="310.247,128.295 234.367,137.586 234.367,196.422 310.247,205.712 " />
<polygon stroke="black" stroke-width="1" fill="rgb(204, 204, 204)" fill-opacity="0.25" points="720.562,598.853 701.217,611.547 701.217,667.397 720.562,744.295 " />
<polygon stroke="black" stroke-width="1" fill="rgb(204, 204, 204)" fill-opacity="0.25" points="720.562,744.295 749.468,671.469 749.468,607.475 720.562,598.853 " />
<polygon stroke="black" stroke-width="1" fill="rgb(204, 204, 204)" fill-opacity="0.25" points="841.002,744.295 812.097,671.469 749.468,671.469 720.562,744.295 " />
<polygon stroke="black" stroke-width="1" fill="rgb(204, 204, 204)" fill-opacity="0.25" points="841.002,598.853 812.097,607.475 812.097,671.469 841.002,744.295 " />
<polygon stroke="black" stroke-width="1" fill="rgb(204, 204, 204)" fill-opacity="0.25" points="519.636,205.712 500.230,176.714 500.230,113.885 519.636,84.886 " />
<polygon stroke="black" stroke-width="1" fill="rgb(204, 204, 204)" fill-opacity="0.25" points="55.677,190.985 55.677,143.023 60.444,137.586 60.444,196.422 " />
<polygon stroke="black" stroke-width="1" fill="rgb(204, 204, 204)" fill-opacity="0.25" points="875.637,1013.950 875.637,962.156 870.256,957.439 870.256,1018.666 " />
<polygon stroke="black" stroke-width="1" fill="rgb(204, 204, 204)" fill-opacity="0.25" points="875.637,962.156 923.095,962.156 928.476,957.439 870.256,957.439 " />
<polygon stroke="black" stroke-width="1" fill="rgb(204, 204, 204)" fill-opacity="0.25" points="55.677,143.023 10.100,143.023 5.334,137.585 60.444,137.586 " />
<polygon stroke="black" stroke-width="1" fill="rgb(204, 204, 204)" fill-opacity="0.25" points="184.023,143.023 229.600,143.023 234.367,137.586 179.256,137.586 " />
<polygon stroke="black" stroke-width="1" fill="rgb(204, 204, 204)" fill-opacity="0.25" points="229.600,143.023 229.600,190.985 234.367,196.422 234.367,137.586 " />
<polygon stroke="black" stroke-width="1" fill="rgb(204, 204, 204)" fill-opacity="0.25" points="718.059,201.636 666.266,201.636 661.549,196.255 722.776,196.255 " />
<polygon stroke="black" stroke-width="1" fill="rgb(204, 204, 204)" fill-opacity="0.25" points="666.266,201.636 666.266,249.094 661.549,254.474 661.549,196.255 " />
<polygon stroke="black" stroke-width="1" fill="rgb(204, 204, 204)" fill-opacity="0.25" points="229.600,190.985 184.023,190.985 179.256,196.423 234.367,196.422 " />
<polygon stroke="black" stroke-width="1" fill="rgb(204, 204, 204)" fill-opacity="0.25" points="184.023,190.985 184.023,143.023 179.256,137.586 179.256,196.423 " />
<polygon stroke="black" stroke-width="1" fill="rgb(204, 204, 204)" fill-opacity="0.25" points="666.266,249.094 718.059,249.094 722.776,254.474 661.549,254.474 " />
<polygon stroke="black" stroke-width="1" fill="rgb(204, 204, 204)" fill-opacity="0.25" points="923.095,962.156 923.095,1013.950 928.476,1018.666 928.476,957.439 " />
<polygon stroke="black" stroke-width="1" fill="rgb(204, 204, 204)" fill-opacity="0.25" points="586.539,588.601 635.929,588.601 642.451,580.831 580.017,580.831 " />
<polygon stroke="black" stroke-width="1" fill="rgb(204, 204, 204)" fill-opacity="0.25" points="586.539,638.175 586.539,588.601 580.017,580.831 580.017,645.945 " />
<polygon stroke="black" stroke-width="1" fill="rgb(204, 204, 204)" fill-opacity="0.25" points="923.095,1013.950 875.637,1013.950 870.256,1018.666 928.476,1018.666 " />
<polygon stroke="black" stroke-width="1" fill="rgb(204, 204, 204)" fill-opacity="0.25" points="635.929,588.601 635.929,638.175 642.451,645.945 642.451,580.831 " />
<polygon stroke="black" stroke-width="1" fill="rgb(204, 204, 204)" fill-opacity="0.25" points="635.929,638.175 586.539,638.175 580.017,645.945 642.451,645.945 " />
<polygon stroke="black" stroke-width="1" fill="rgb(204, 204, 204)" fill-opacity="0.25" points="10.100,190.985 55.677,190.985 60.444,196.422 5.334,196.422 " />
<polygon stroke="black" stroke-width="1" fill="rgb(204, 204, 204)" fill-opacity="0.25" points="718.059,249.094 718.059,201.636 722.776,196.255 722.776,254.474 " />
<polygon stroke="black" stroke-width="1" fill="rgb(204, 204, 204)" fill-opacity="0.25" points="10.100,143.023 10.100,190.985 5.334,196.422 5.334,137.585 " />
<polygon stroke="black" stroke-width="1" fill="rgb(204, 204, 204)" fill-opacity="0.25" points="756.009,663.288 756.009,615.656 749.468,607.475 749.468,671.469 " />
<polygon stroke="black" stroke-width="1" fill="rgb(204, 204, 204)" fill-opacity="0.25" points="805.555,663.288 756.009,663.288 749.468,671.469 812.097,671.469 " />
<polygon stroke="black" stroke-width="1" fill="rgb(204, 204, 204)" fill-opacity="0.25" points="805.555,615.656 805.555,663.288 812.097,671.469 812.097,607.475 " />
<polygon stroke="black" stroke-width="1" fill="rgb(204, 204, 204)" fill-opacity="0.25" points="756.009,615.656 805.555,615.656 812.097,607.475 749.468,607.475 " />
<polygon stroke="black" stroke-width="1" fill="rgb(204, 204, 204)" fill-opacity="0.25" points="531.918,46.225 578.518,46.225 578.518,90.508 531.918,90.508 " />
<polygon stroke="black" stroke-width="1" fill="rgb(204, 204, 204)" fill-opacity="0.25" points="219.500,31.337 219.500,17.237 172.900,17.237 172.900,31.337 " />
<polygon stroke="black" stroke-width="1" fill="rgb(204, 204, 204)" fill-opacity="0.25" points="710.528,21.157 710.528,7.057 754.812,7.057 754.812,21.157 " />
<polygon stroke="black" stroke-width="1" fill="rgb(204, 204, 204)" fill-opacity="0.25" points="531.918,35.558 531.918,21.458 578.518,21.458 578.518,35.558 " />
<polygon stroke="black" stroke-width="1" fill="rgb(204, 204, 204)" fill-opacity="0.25" points="152.904,19.433 152.904,5.333 108.620,5.333 108.620,19.433 " />
<polygon stroke="black" stroke-width="1" fill="rgb(204, 204, 204)" fill-opacity="0.25" points="219.500,66.771 172.900,66.771 172.900,117.628 219.500,117.628 " />
<polygon stroke="black" stroke-width="1" fill="rgb(204, 204, 204)" fill-opacity="0.25" points="291.692,20.592 291.692,34.692 338.292,34.692 338.292,20.592 " />
<polygon stroke="black" stroke-width="1" fill="rgb(204, 204, 204)" fill-opacity="0.25" points="168.643,42.004 168.643,56.104 219.500,56.104 219.500,42.004 " />
<polygon stroke="black" stroke-width="1" fill="rgb(204, 204, 204)" fill-opacity="0.25" points="276.768,17.237 276.768,31.337 230.167,31.337 230.167,17.237 " />
<polygon stroke="black" stroke-width="1" fill="rgb(204, 204, 204)" fill-opacity="0.25" points="823.714,39.162 823.714,53.262 772.856,53.262 772.856,39.162 " />
<polygon stroke="black" stroke-width="1" fill="rgb(204, 204, 204)" fill-opacity="0.25" points="287.435,70.126 287.435,117.628 335.114,117.628 335.114,70.126 " />
<polygon stroke="black" stroke-width="1" fill="rgb(204, 204, 204)" fill-opacity="0.25" points="719.551,90.508 705.451,90.508 705.451,43.005 719.551,43.005 " />
<polygon stroke="black" stroke-width="1" fill="rgb(204, 204, 204)" fill-opacity="0.25" points="603.285,42.830 589.185,42.830 589.185,90.508 603.285,90.508 " />
<polygon stroke="black" stroke-width="1" fill="rgb(204, 204, 204)" fill-opacity="0.25" points="1004.236,194.837 990.136,194.837 990.136,242.340 1004.236,242.340 " />
<polygon stroke="black" stroke-width="1" fill="rgb(204, 204, 204)" fill-opacity="0.25" points="680.684,42.830 694.784,42.830 694.784,90.508 680.684,90.508 " />
<polygon stroke="black" stroke-width="1" fill="rgb(204, 204, 204)" fill-opacity="0.25" points="276.768,117.628 230.167,117.628 230.167,66.771 276.768,66.771 " />
<polygon stroke="black" stroke-width="1" fill="rgb(204, 204, 204)" fill-opacity="0.25" points="850.611,33.767 850.611,19.667 897.211,19.667 897.211,33.767 " />
<polygon stroke="black" stroke-width="1" fill="rgb(204, 204, 204)" fill-opacity="0.25" points="338.292,59.458 338.292,45.359 287.435,45.359 287.435,59.459 " />
<polygon stroke="black" stroke-width="1" fill="rgb(204, 204, 204)" fill-opacity="0.25" points="465.200,31.276 465.200,17.176 418.600,17.176 418.600,31.276 " />
<polygon stroke="black" stroke-width="1" fill="rgb(204, 204, 204)" fill-opacity="0.25" points="414.343,56.043 414.343,41.943 465.200,41.943 465.200,56.043 " />
<polygon stroke="black" stroke-width="1" fill="rgb(204, 204, 204)" fill-opacity="0.25" points="670.017,46.225 623.417,46.225 623.417,90.508 670.017,90.508 " />
<polygon stroke="black" stroke-width="1" fill="rgb(204, 204, 204)" fill-opacity="0.25" points="623.417,21.458 623.417,35.558 670.017,35.558 670.017,21.458 " />
<polygon stroke="black" stroke-width="1" fill="rgb(204, 204, 204)" fill-opacity="0.25" points="772.856,14.395 772.856,28.495 817.140,28.495 817.140,14.395 " />
<polygon stroke="black" stroke-width="1" fill="rgb(204, 204, 204)" fill-opacity="0.25" points="276.768,42.004 276.768,56.104 230.167,56.104 230.167,42.004 " />
<polygon stroke="black" stroke-width="1" fill="rgb(204, 204, 204)" fill-opacity="0.25" points="1005.877,789.396 1005.877,803.496 961.593,803.496 961.593,789.396 " />
<polygon stroke="black" stroke-width="1" fill="rgb(204, 204, 204)" fill-opacity="0.25" points="414.343,114.213 460.010,114.213 460.010,66.710 414.343,66.710 " />
<polygon stroke="black" stroke-width="1" fill="rgb(204, 204, 204)" fill-opacity="0.25" points="1015.273,591.127 1001.173,591.127 1001.173,545.459 1015.273,545.459 " />
<polygon stroke="black" stroke-width="1" fill="rgb(204, 204, 204)" fill-opacity="0.25" points="990.506,591.127 976.406,591.127 976.406,543.624 990.506,543.624 " />
<polygon stroke="black" stroke-width="1" fill="rgb(204, 204, 204)" fill-opacity="0.25" points="1012.691,455.148 998.591,455.148 998.591,500.816 1012.691,500.816 " />
<polygon stroke="black" stroke-width="1" fill="rgb(204, 204, 204)" fill-opacity="0.25" points="514.330,26.717 500.230,26.717 500.230,74.219 514.330,74.219 " />

</svg>
